<svg xmlns="http://www.w3.org/2000/svg" version="1.1"
    xmlns:xlink="http://www.w3.org/1999/xlink" width="512" height="512" x="0" y="0" viewBox="0 0 682.667 682.667" style="enable-background:new 0 0 512 512" xml:space="preserve" class="">
    <g>
        <defs>
            <clipPath id="a" clipPathUnits="userSpaceOnUse">
                <path d="M0 512h512V0H0Z" fill="#053a57" opacity="1" data-original="#000000" class=""></path>
            </clipPath>
        </defs>
        <g clip-path="url(#a)" transform="matrix(1.33333 0 0 -1.33333 0 682.667)">
            <path d="M0 0v84.99l88 88h243.917c11.045 0 20-8.954 20-20V-43.789" style="stroke-width:20;stroke-linecap:round;stroke-linejoin:round;stroke-miterlimit:10;stroke-dasharray:none;stroke-opacity:1" transform="translate(10 329.01)" fill="none" stroke="#053a57" stroke-width="20" stroke-linecap="round" stroke-linejoin="round" stroke-miterlimit="10" stroke-dasharray="none" stroke-opacity="" data-original="#000000" class="" opacity="1"></path>
            <path d="M0 0h-169.549c-11.046 0-20 8.954-20 20v169.01" style="stroke-width:20;stroke-linecap:round;stroke-linejoin:round;stroke-miterlimit:10;stroke-dasharray:none;stroke-opacity:1" transform="translate(199.549 50)" fill="none" stroke="#053a57" stroke-width="20" stroke-linecap="round" stroke-linejoin="round" stroke-miterlimit="10" stroke-dasharray="none" stroke-opacity="" data-original="#000000" class="" opacity="1"></path>
            <path d="m0 0 88 88V18.625C88 8.338 79.662 0 69.375 0Z" style="stroke-width:20;stroke-linecap:round;stroke-linejoin:round;stroke-miterlimit:10;stroke-dasharray:none;stroke-opacity:1" transform="translate(10 414)" fill="none" stroke="#053a57" stroke-width="20" stroke-linecap="round" stroke-linejoin="round" stroke-miterlimit="10" stroke-dasharray="none" stroke-opacity="" data-original="#000000" class="" opacity="1"></path>
            <path d="M0 0h216" style="stroke-width:20;stroke-linecap:round;stroke-linejoin:round;stroke-miterlimit:10;stroke-dasharray:none;stroke-opacity:1" transform="translate(77.959 340.03)" fill="none" stroke="#053a57" stroke-width="20" stroke-linecap="round" stroke-linejoin="round" stroke-miterlimit="10" stroke-dasharray="none" stroke-opacity="" data-original="#000000" class="" opacity="1"></path>
            <path d="M0 0h138.481" style="stroke-width:20;stroke-linecap:round;stroke-linejoin:round;stroke-miterlimit:10;stroke-dasharray:none;stroke-opacity:1" transform="translate(153.477 396.02)" fill="none" stroke="#053a57" stroke-width="20" stroke-linecap="round" stroke-linejoin="round" stroke-miterlimit="10" stroke-dasharray="none" stroke-opacity="" data-original="#000000" class="" opacity="1"></path>
            <path d="M0 0h153.043" style="stroke-width:20;stroke-linecap:round;stroke-linejoin:round;stroke-miterlimit:10;stroke-dasharray:none;stroke-opacity:1" transform="translate(77.959 284.01)" fill="none" stroke="#053a57" stroke-width="20" stroke-linecap="round" stroke-linejoin="round" stroke-miterlimit="10" stroke-dasharray="none" stroke-opacity="" data-original="#000000" class="" opacity="1"></path>
            <path d="M0 0h199.611" style="stroke-width:20;stroke-linecap:round;stroke-linejoin:round;stroke-miterlimit:10;stroke-dasharray:none;stroke-opacity:1" transform="translate(77.959 228.02)" fill="none" stroke="#053a57" stroke-width="20" stroke-linecap="round" stroke-linejoin="round" stroke-miterlimit="10" stroke-dasharray="none" stroke-opacity="" data-original="#000000" class="" opacity="1"></path>
            <path d="M0 0h75.519" style="stroke-width:20;stroke-linecap:round;stroke-linejoin:round;stroke-miterlimit:10;stroke-dasharray:none;stroke-opacity:1" transform="translate(77.959 172)" fill="none" stroke="#053a57" stroke-width="20" stroke-linecap="round" stroke-linejoin="round" stroke-miterlimit="10" stroke-dasharray="none" stroke-opacity="" data-original="#000000" class="" opacity="1"></path>
            <path d="M0 0h44.541" style="stroke-width:20;stroke-linecap:round;stroke-linejoin:round;stroke-miterlimit:10;stroke-dasharray:none;stroke-opacity:1" transform="translate(205.126 172)" fill="none" stroke="#053a57" stroke-width="20" stroke-linecap="round" stroke-linejoin="round" stroke-miterlimit="10" stroke-dasharray="none" stroke-opacity="" data-original="#000000" class="" opacity="1"></path>
            <path d="M0 0h16.389" style="stroke-width:20;stroke-linecap:round;stroke-linejoin:round;stroke-miterlimit:10;stroke-dasharray:none;stroke-opacity:1" transform="translate(277.57 284.01)" fill="none" stroke="#053a57" stroke-width="20" stroke-linecap="round" stroke-linejoin="round" stroke-miterlimit="10" stroke-dasharray="none" stroke-opacity="" data-original="#000000" class="" opacity="1"></path>
            <path d="M0 0c-16.698 29.24-12.582 67.223 12.348 92.152l22.8 22.801c29.86 29.859 78.445 29.859 108.305 0 29.859-29.86 29.859-78.445 0-108.305l-22.801-22.8c-24.929-24.929-62.91-29.046-92.15-12.349" style="stroke-width:20;stroke-linecap:round;stroke-linejoin:round;stroke-miterlimit:10;stroke-dasharray:none;stroke-opacity:1" transform="translate(336.152 179.652)" fill="none" stroke="#053a57" stroke-width="20" stroke-linecap="round" stroke-linejoin="round" stroke-miterlimit="10" stroke-dasharray="none" stroke-opacity="" data-original="#000000" class="" opacity="1"></path>
            <path d="M0 0c11.477-2.262 23.843 1.044 32.718 9.919L55.519 32.72c14.144 14.144 14.144 37.158 0 51.302-14.144 14.144-37.158 14.145-51.302 0l-22.801-22.8c-8.84-8.841-12.155-21.146-9.945-32.584" style="stroke-width:20;stroke-linecap:round;stroke-linejoin:round;stroke-miterlimit:10;stroke-dasharray:none;stroke-opacity:1" transform="translate(395.585 182.082)" fill="none" stroke="#053a57" stroke-width="20" stroke-linecap="round" stroke-linejoin="round" stroke-miterlimit="10" stroke-dasharray="none" stroke-opacity="" data-original="#000000" class="" opacity="1"></path>
            <path d="M0 0c-11.549 2.364-24.036-.925-32.977-9.866l-22.801-22.801c-14.144-14.145-14.144-37.158 0-51.303 14.144-14.143 37.158-14.143 51.302 0l22.801 22.802c8.841 8.84 12.155 21.145 9.945 32.583M59.174 2.482C75.872-26.758 71.756-64.74 46.827-89.67l-22.802-22.801c-29.859-29.859-78.444-29.859-108.304 0-29.86 29.861-29.86 78.446 0 108.305l22.801 22.801c24.929 24.929 62.911 29.046 92.15 12.348" style="stroke-width:20;stroke-linecap:round;stroke-linejoin:round;stroke-miterlimit:10;stroke-dasharray:none;stroke-opacity:1" transform="translate(301.674 144.865)" fill="none" stroke="#053a57" stroke-width="20" stroke-linecap="round" stroke-linejoin="round" stroke-miterlimit="10" stroke-dasharray="none" stroke-opacity="" data-original="#000000" class="" opacity="1"></path>
            <path d="M0 0c7.87-7.871 20.63-7.871 28.501 0l81.821 81.821c7.871 7.87 7.871 20.631 0 28.501-7.87 7.87-20.631 7.87-28.501 0L0 28.501C-7.871 20.631-7.871 7.87 0 0Z" style="stroke-width:20;stroke-linecap:round;stroke-linejoin:round;stroke-miterlimit:10;stroke-dasharray:none;stroke-opacity:1" transform="translate(293.339 108.339)" fill="none" stroke="#053a57" stroke-width="20" stroke-linecap="round" stroke-linejoin="round" stroke-miterlimit="10" stroke-dasharray="none" stroke-opacity="" data-original="#000000" class="" opacity="1"></path>
            <path d="M0 0v0" style="stroke-width:20;stroke-linecap:round;stroke-linejoin:round;stroke-miterlimit:10;stroke-dasharray:none;stroke-opacity:1" transform="translate(10 284.01)" fill="none" stroke="#053a57" stroke-width="20" stroke-linecap="round" stroke-linejoin="round" stroke-miterlimit="10" stroke-dasharray="none" stroke-opacity="" data-original="#000000" class="" opacity="1"></path>
        </g>
    </g>
</svg>